HIERARCHY
ROOT pelvis
{
	OFFSET 0.003123 -0.351407 0.012037
	CHANNELS 6 Xposition Yposition Zposition Zrotation Yrotation Xrotation 
	JOINT left_hip
	{
		OFFSET 0.058189 -0.092763 -0.026001
		CHANNELS 3 Zrotation Yrotation Xrotation
		JOINT left_knee
		{
			OFFSET 0.054695 -0.378753 -0.009396
			CHANNELS 3 Zrotation Yrotation Xrotation
			JOINT left_ankle
			{
				OFFSET -0.043453 -0.403059 -0.031876
				CHANNELS 3 Zrotation Yrotation Xrotation
				JOINT left_foot
				{
					OFFSET 0.047257 -0.057997 0.118216
					CHANNELS 3 Zrotation Yrotation Xrotation
					End Site
					{
						OFFSET 0.000000 0.000000 0.000000
					}
				}
			}
		}
	}
	JOINT right_hip
	{
		OFFSET -0.063267 -0.103908 -0.021250
		CHANNELS 3 Zrotation Yrotation Xrotation
		JOINT right_knee
		{
			OFFSET -0.044210 -0.362380 -0.016824
			CHANNELS 3 Zrotation Yrotation Xrotation
			JOINT right_ankle
			{
				OFFSET 0.015417 -0.410728 -0.020192
				CHANNELS 3 Zrotation Yrotation Xrotation
				JOINT right_foot
				{
					OFFSET -0.038812 -0.058328 0.119049
					CHANNELS 3 Zrotation Yrotation Xrotation
					End Site
					{
						OFFSET 0.000000 0.000000 0.000000
					}
				}
			}
		}
	}
	JOINT spine_1
	{
		OFFSET -0.002763 0.109891 -0.027618
		CHANNELS 3 Zrotation Yrotation Xrotation
		JOINT spine_2
		{
			OFFSET 0.009448 0.131853 -0.005940
			CHANNELS 3 Zrotation Yrotation Xrotation
			JOINT spine_3
			{
				OFFSET -0.011330 0.052235 0.028447
				CHANNELS 3 Zrotation Yrotation Xrotation
				JOINT neck
				{
					OFFSET -0.012164 0.165167 -0.031615
					CHANNELS 3 Zrotation Yrotation Xrotation
					JOINT head
					{
						OFFSET 0.024783 0.160452 0.020737
						CHANNELS 3 Zrotation Yrotation Xrotation
						End Site
						{
							OFFSET 0.000000 0.000000 0.000000
						}
					}
				}
				JOINT left_collar
				{
					OFFSET 0.046364 0.084944 -0.007220
					CHANNELS 3 Zrotation Yrotation Xrotation
					JOINT left_shoulder
					{
						OFFSET 0.119239 0.057728 -0.015461
						CHANNELS 3 Zrotation Yrotation Xrotation
						JOINT left_elbow
						{
							OFFSET 0.254123 -0.072151 -0.042459
							CHANNELS 3 Zrotation Yrotation Xrotation
							JOINT left_wrist
							{
								OFFSET 0.251987 0.023221 -0.002472
								CHANNELS 3 Zrotation Yrotation Xrotation
								JOINT left_index_1
								{
									OFFSET 0.101902 -0.008688 0.019351
									CHANNELS 3 Zrotation Yrotation Xrotation
									JOINT left_index_2
									{
										OFFSET 0.030149 -0.011154 0.001151
										CHANNELS 3 Zrotation Yrotation Xrotation
										JOINT left_index_3
										{
											OFFSET 0.006504 -0.021577 -0.002433
											CHANNELS 3 Zrotation Yrotation Xrotation
											End Site
											{
												OFFSET 0.000000 0.000000 0.000000
											}
										}
									}
								}
								JOINT left_middle_1
								{
									OFFSET 0.109398 -0.006328 -0.003981
									CHANNELS 3 Zrotation Yrotation Xrotation
									JOINT left_middle_2
									{
										OFFSET 0.026472 -0.015218 -0.004641
										CHANNELS 3 Zrotation Yrotation Xrotation
										JOINT left_middle_3
										{
											OFFSET 0.005022 -0.023347 -0.001911
											CHANNELS 3 Zrotation Yrotation Xrotation
											End Site
											{
												OFFSET 0.000000 0.000000 0.000000
											}
										}
									}
								}
								JOINT left_pinky_1
								{
									OFFSET 0.084047 -0.014539 -0.043750
									CHANNELS 3 Zrotation Yrotation Xrotation
									JOINT left_pinky_2
									{
										OFFSET 0.012124 -0.014448 -0.005375
										CHANNELS 3 Zrotation Yrotation Xrotation
										JOINT left_pinky_3
										{
											OFFSET 0.003798 -0.018853 0.000167
											CHANNELS 3 Zrotation Yrotation Xrotation
											End Site
											{
												OFFSET 0.000000 0.000000 0.000000
											}
										}
									}
								}
								JOINT left_ring_1
								{
									OFFSET 0.097444 -0.009268 -0.027345
									CHANNELS 3 Zrotation Yrotation Xrotation
									JOINT left_ring_2
									{
										OFFSET 0.023561 -0.016057 -0.001895
										CHANNELS 3 Zrotation Yrotation Xrotation
										JOINT left_ring_3
										{
											OFFSET 0.004257 -0.023548 0.000814
											CHANNELS 3 Zrotation Yrotation Xrotation
											End Site
											{
												OFFSET 0.000000 0.000000 0.000000
											}
										}
									}
								}
								JOINT left_thumb_1
								{
									OFFSET 0.040636 -0.017977 0.025611
									CHANNELS 3 Zrotation Yrotation Xrotation
									JOINT left_thumb_2
									{
										OFFSET 0.021637 -0.017639 0.011623
										CHANNELS 3 Zrotation Yrotation Xrotation
										JOINT left_thumb_3
										{
											OFFSET 0.024002 -0.008356 0.006548
											CHANNELS 3 Zrotation Yrotation Xrotation
											End Site
											{
												OFFSET 0.000000 0.000000 0.000000
											}
										}
									}
								}
							}
						}
					}
				}
				JOINT right_collar
				{
					OFFSET -0.047695 0.084339 -0.013400
					CHANNELS 3 Zrotation Yrotation Xrotation
					JOINT right_shoulder
					{
						OFFSET -0.102578 0.053524 -0.012669
						CHANNELS 3 Zrotation Yrotation Xrotation
						JOINT right_elbow
						{
							OFFSET -0.271150 -0.036492 -0.026467
							CHANNELS 3 Zrotation Yrotation Xrotation
							JOINT right_wrist
							{
								OFFSET -0.249267 -0.004533 -0.015325
								CHANNELS 3 Zrotation Yrotation Xrotation
								JOINT right_index_1
								{
									OFFSET -0.099881 -0.011783 0.019600
									CHANNELS 3 Zrotation Yrotation Xrotation
									JOINT right_index_2
									{
										OFFSET -0.030148 -0.011154 0.001151
										CHANNELS 3 Zrotation Yrotation Xrotation
										JOINT right_index_3
										{
											OFFSET -0.006505 -0.021577 -0.002432
											CHANNELS 3 Zrotation Yrotation Xrotation
											End Site
											{
												OFFSET 0.000000 0.000000 0.000000
											}
										}
									}
								}
								JOINT right_middle_1
								{
									OFFSET -0.107376 -0.009422 -0.003734
									CHANNELS 3 Zrotation Yrotation Xrotation
									JOINT right_middle_2
									{
										OFFSET -0.026472 -0.015218 -0.004641
										CHANNELS 3 Zrotation Yrotation Xrotation
										JOINT right_middle_3
										{
											OFFSET -0.005022 -0.023347 -0.001911
											CHANNELS 3 Zrotation Yrotation Xrotation
											End Site
											{
												OFFSET 0.000000 0.000000 0.000000
											}
										}
									}
								}
								JOINT right_pinky_1
								{
									OFFSET -0.082027 -0.017634 -0.043503
									CHANNELS 3 Zrotation Yrotation Xrotation
									JOINT right_pinky_2
									{
										OFFSET -0.012123 -0.014448 -0.005374
										CHANNELS 3 Zrotation Yrotation Xrotation
										JOINT right_pinky_3
										{
											OFFSET -0.003798 -0.018852 0.000167
											CHANNELS 3 Zrotation Yrotation Xrotation
											End Site
											{
												OFFSET 0.000000 0.000000 0.000000
											}
										}
									}
								}
								JOINT right_ring_1
								{
									OFFSET -0.095423 -0.012362 -0.027099
									CHANNELS 3 Zrotation Yrotation Xrotation
									JOINT right_ring_2
									{
										OFFSET -0.023561 -0.016057 -0.001895
										CHANNELS 3 Zrotation Yrotation Xrotation
										JOINT right_ring_3
										{
											OFFSET -0.004257 -0.023548 0.000816
											CHANNELS 3 Zrotation Yrotation Xrotation
											End Site
											{
												OFFSET 0.000000 0.000000 0.000000
											}
										}
									}
								}
								JOINT right_thumb_1
								{
									OFFSET -0.038613 -0.021074 0.025861
									CHANNELS 3 Zrotation Yrotation Xrotation
									JOINT right_thumb_2
									{
										OFFSET -0.021636 -0.017639 0.011623
										CHANNELS 3 Zrotation Yrotation Xrotation
										JOINT right_thumb_3
										{
											OFFSET -0.024004 -0.008353 0.006547
											CHANNELS 3 Zrotation Yrotation Xrotation
											End Site
											{
												OFFSET 0.000000 0.000000 0.000000
											}
										}
									}
								}
							}
						}
					}
				}
			}
		}
	}
}
MOTION
Frames: 4
Frame Time: 0.050000
0.000027 1.057789 0.000587 -0.314191 -4.047173 -23.564611 -0.058359 3.238262 21.062246 2.068942 -3.483667 27.155891 -6.875445 1.225586 18.430793 0.000000 0.000000 0.000000 -1.399122 -2.264585 22.957934 -4.122594 1.363527 14.432795 7.281108 0.026076 18.889007 0.000000 0.000000 0.000000 -4.695706 -1.510006 58.649272 3.718263 -8.809816 -37.066048 5.306975 15.096732 20.199694 4.506088 -3.734360 12.619952 0.000000 0.000000 0.000000 -7.315358 -3.626148 0.259761 -49.684682 -4.934538 -10.199773 -41.119288 -21.657557 9.941211 -1.038550 -2.407182 18.149144 -15.904756 7.870815 1.811158 5.541006 -1.331492 -0.876457 0.000000 0.000000 0.000000 -13.153126 -1.043760 -3.248942 -6.460980 1.354342 0.471661 0.000000 0.000000 0.000000 26.720294 -21.160788 -16.828077 -39.642169 7.398134 4.523614 0.000000 0.000000 0.000000 -2.221516 -9.492086 -5.713245 -21.795749 4.314790 7.734640 0.000000 0.000000 0.000000 10.757838 18.045646 16.195186 -6.854222 -6.498976 0.509080 0.000000 0.000000 0.000000 10.648347 8.339094 5.518960 42.781919 14.293331 -0.999443 44.475555 59.506089 26.479723 -1.582690 -2.202866 -2.486391 9.437488 -8.827730 2.720932 -7.625634 2.580465 -9.299249 0.000000 0.000000 0.000000 14.580101 3.303904 -3.546798 1.890897 1.418149 -6.374684 0.000000 0.000000 0.000000 -13.371461 18.254013 -24.531022 28.075431 -3.377854 7.398668 0.000000 0.000000 0.000000 10.608646 9.637276 -6.073873 15.397510 1.549092 -1.698428 0.000000 0.000000 0.000000 -6.206535 -21.844563 17.200857 10.401368 0.711094 2.441415 0.000000 0.000000 0.000000 
0.006210 1.057144 0.004547 -0.294416 -1.796368 -23.805777 -0.137545 2.976544 19.944607 -0.099450 -3.123078 28.836812 -4.837417 6.391950 21.552122 0.000000 0.000000 0.000000 -1.492411 -2.374285 22.887912 -4.098958 1.431416 15.687891 6.441925 -1.158760 19.504869 0.000000 0.000000 0.000000 -5.241248 -1.657256 59.367574 3.032329 -8.112644 -35.112158 5.447615 13.783179 17.132532 4.501784 -3.946575 13.497868 0.000000 0.000000 0.000000 -6.592006 -3.475435 0.328999 -50.435450 -5.036336 -10.149007 -40.380951 -20.965961 9.409793 -0.759412 -2.053100 18.369567 -15.740136 8.789883 2.045241 6.126712 -2.571443 -4.397995 0.000000 0.000000 0.000000 -11.088674 -3.167591 -3.755569 -8.466771 1.735226 0.244797 0.000000 0.000000 0.000000 26.275502 -21.381447 -17.207084 -38.916493 7.254460 4.478143 0.000000 0.000000 0.000000 -2.395445 -9.326497 -5.613379 -20.547701 4.299279 8.192539 0.000000 0.000000 0.000000 13.666732 15.922751 13.191137 -9.590612 -5.260450 1.783373 0.000000 0.000000 0.000000 9.484819 9.552090 6.049608 45.661008 11.463885 -1.427973 32.882459 49.973518 15.208598 -0.720363 -0.403297 -2.681990 9.636787 -8.386404 2.599362 -7.535752 2.673556 -9.843861 0.000000 0.000000 0.000000 14.807337 3.837601 -3.766095 1.800112 1.283122 -5.729380 0.000000 0.000000 0.000000 -13.785630 18.305788 -24.862933 27.008685 -3.199857 7.109000 0.000000 0.000000 0.000000 10.230809 9.974833 -6.290621 15.858421 1.547125 -1.450614 0.000000 0.000000 0.000000 -6.232630 -21.694243 16.913127 10.713827 0.261364 2.632986 0.000000 0.000000 0.000000 
0.013801 1.056499 0.012466 -0.078766 0.650149 -23.981636 -0.768149 3.049403 20.364573 -0.972464 -2.949152 28.094857 -2.478766 10.668181 23.252951 0.000000 0.000000 0.000000 -1.993220 -2.433957 23.098382 -3.983103 1.453421 16.878099 5.617157 -1.966895 19.566117 0.000000 0.000000 0.000000 -5.154374 -2.130424 59.076585 2.984769 -7.947440 -35.858241 5.212274 14.281845 18.626483 5.668293 -4.223785 12.821361 0.000000 0.000000 0.000000 -6.092682 -4.296977 0.788792 -50.322131 -6.782172 -10.149871 -39.463496 -20.214235 8.823395 -0.705815 -2.818500 17.804583 -15.916851 9.947142 2.304030 5.894707 -2.421030 -4.055793 0.000000 0.000000 0.000000 -11.854348 -2.381862 -3.544423 -8.732879 2.009734 1.110138 0.000000 0.000000 0.000000 26.294438 -21.720474 -17.812529 -42.548949 7.673104 3.888149 0.000000 0.000000 0.000000 -2.482255 -8.873753 -5.333146 -22.301238 4.652347 8.431172 0.000000 0.000000 0.000000 14.212137 16.395807 13.590320 -7.919072 -7.304802 0.721967 0.000000 0.000000 0.000000 8.694568 8.898588 5.656575 48.685625 10.335511 -1.515270 25.457333 39.901278 8.772557 -0.868608 -0.265574 -4.691486 9.244364 -8.390256 2.550813 -7.189365 2.533731 -10.208030 0.000000 0.000000 0.000000 13.836382 4.604002 -3.882176 2.999639 1.075451 -4.616802 0.000000 0.000000 0.000000 -13.288253 17.983480 -25.330800 26.891864 -3.639784 7.834305 0.000000 0.000000 0.000000 9.846489 10.770765 -6.731202 16.125359 1.103816 0.449490 0.000000 0.000000 0.000000 -6.157007 -21.161772 15.597945 11.349711 -0.170104 2.843827 0.000000 0.000000 0.000000 
0.022346 1.056499 0.019066 0.086883 3.070820 -24.170195 -1.519910 3.139043 20.710639 -1.153849 -3.015715 27.517344 -1.142482 13.369030 25.004252 0.000000 0.000000 0.000000 -2.634721 -2.391252 22.735349 -3.541788 1.440374 19.040023 4.791307 -3.020880 20.086757 0.000000 0.000000 0.000000 -4.488803 -2.833453 58.953508 2.572388 -7.552858 -35.903063 4.438613 13.771401 18.735741 6.629635 -4.465108 12.406454 0.000000 0.000000 0.000000 -5.795893 -5.235824 1.326755 -49.941239 -7.331109 -10.096011 -39.543465 -20.826665 9.096891 -0.654561 -2.134060 18.627874 -16.448301 9.660227 2.131872 4.960859 -1.041950 -0.266029 0.000000 0.000000 0.000000 -13.152511 0.393009 -2.689781 -7.634876 1.895846 1.459033 0.000000 0.000000 0.000000 26.982930 -21.722142 -17.290520 -44.120116 8.010915 2.641919 0.000000 0.000000 0.000000 -1.828022 -8.602141 -5.119717 -23.535430 4.892319 7.914374 0.000000 0.000000 0.000000 14.770853 15.352997 12.308671 -9.533353 -5.331800 1.769140 0.000000 0.000000 0.000000 7.413187 8.459362 5.221063 51.707819 9.452731 -1.535577 21.316658 30.363530 5.000580 -0.792080 -0.795823 -6.799762 9.363177 -8.573936 2.540789 -5.741177 2.538204 -10.857632 0.000000 0.000000 0.000000 14.124523 4.560932 -3.782070 3.275623 1.297360 -5.172880 0.000000 0.000000 0.000000 -12.287529 17.992263 -26.310029 28.892444 -4.151402 8.329196 0.000000 0.000000 0.000000 10.404707 11.159018 -6.862910 16.546996 1.411481 0.264702 0.000000 0.000000 0.000000 -5.249737 -21.059530 15.141264 10.599449 -0.749007 2.776257 0.000000 0.000000 0.000000 
